<svg width="80" height="80" viewBox="0 0 80 80" fill="none" xmlns="http://www.w3.org/2000/svg">
  <!-- Background circle with warning gradient -->
  <defs>
    <radialGradient id="warningGradient" cx="50%" cy="50%" r="50%">
      <stop offset="0%" style="stop-color:#fbbf24;stop-opacity:1" />
      <stop offset="100%" style="stop-color:#f59e0b;stop-opacity:1" />
    </radialGradient>
  </defs>
  <circle cx="40" cy="40" r="40" fill="url(#warningGradient)"/>
  
  <!-- Dark hoodie -->
  <path d="M25 30h30v40H25z" fill="#1f2937"/>
  <path d="M30 35h20v30H30z" fill="#374151"/>
  
  <!-- Head -->
  <circle cx="40" cy="28" r="12" fill="#fbbf24"/>
  
  <!-- Hood shadow -->
  <path d="M28 18c0-6 5-10 12-10s12 4 12 10v8H28v-8z" fill="#1f2937" opacity="0.7"/>
  
  <!-- Suspicious eyes -->
  <circle cx="36" cy="26" r="2" fill="#dc2626"/>
  <circle cx="44" cy="26" r="2" fill="#dc2626"/>
  
  <!-- Menacing smile -->
  <path d="M34 32c0 2 2 4 6 4s6-2 6-4" stroke="#dc2626" stroke-width="2" fill="none"/>
  
  <!-- Warning symbol -->
  <path d="M40 15l-3 6h6l-3-6z" fill="#dc2626"/>
  <text x="40" y="20" text-anchor="middle" fill="white" font-family="Arial, sans-serif" font-size="6" font-weight="bold">!</text>
  
  <!-- Name badge (suspicious) -->
  <rect x="35" y="45" width="10" height="6" rx="1" fill="#dc2626"/>
  <text x="40" y="49" text-anchor="middle" fill="white" font-family="Arial, sans-serif" font-size="4" font-weight="bold">IM</text>
</svg>